# AST/ASF file generated using VICON BodyLanguage
# -----------------------------------------------
:version 1.10
:name VICON
:units
  mass 1.0
  length 0.45
  angle deg
:documentation
   .ast/.asf automatically generated from VICON data using
   VICON BodyBuilder and BodyLanguage model FoxedUp or BRILLIANT.MOD
:root
   order TX TY TZ RX RY RZ
   axis XYZ
   position 0 0 0  
   orientation 0 -0 0 
:bonedata
  begin
     id 1 
     name lhipjoint
     direction 0.500677 -0.737119 0.453848 
     length 2.34727 
     axis 0 -0 0  XYZ
  end
  begin
     id 2 
     name lfemur
     direction 0.34202 -0.939693 0  
     length 7.53653  
     axis 0 -0 20  XYZ
    dof rx ry rz
    limits (-160.0 20.0)
           (-70.0 70.0)
           (-60.0 70.0)
  end
  begin
     id 3 
     name ltibia
     direction 0.34202 -0.939693 0   
     length 6.85572   
     axis 0 -0 20   XYZ
    dof rx
    limits (-10.0 170.0)
  end
  begin
     id 4 
     name lfoot
     direction 0.155313 -0.426718 0.890949   
     length 2.18324   
     axis -90 -1.13533e-015 20   XYZ
    dof rx rz
    limits (-45.0 90.0)
           (-70.0 20.0)
  end
  begin
     id 5 
     name ltoes
     direction 1.53474e-011 -4.21647e-011 1   
     length 1.06748   
     axis -90 -1.13533e-015 20   XYZ
    dof rx
    limits (-90.0 20.0)
  end
  begin
     id 6 
     name rhipjoint
     direction -0.632471 -0.659587 0.406111   
     length 2.62319  
     axis 0 -0 0  XYZ 
  end
  begin
     id 7 
     name rfemur
     direction -0.34202 -0.939693 0   
     length 7.21735   
     axis 0 -0 -20   XYZ
    dof rx ry rz
    limits (-160.0 20.0)
           (-70.0 70.0)
           (-70.0 60.0)
  end
  begin
     id 8 
     name rtibia
     direction -0.34202 -0.939693 0   
     length 7.02558   
     axis 0 -0 -20   XYZ
    dof rx
    limits (-10.0 170.0)
 end
 begin
     id 9 
     name rfoot
     direction -0.16057 -0.441164 0.882945   
     length 2.10014  
     axis -90 1.13533e-015 -20   XYZ
    dof rx rz
    limits (-45.0 90.0)
           (-20.0 70.0)
  end
  begin
     id 10 
     name rtoes
     direction -1.53553e-011 -4.2192e-011 1   
     length 1.02554   
     axis -90 1.13533e-015 -20   XYZ
    dof rx
    limits (-90.0 20.0)
  end
  begin
     id 11 
     name lowerback
     direction 0.0401429 0.998861 -0.0258085   
     length 1.80848   
     axis 0 -0 0   XYZ
    dof rx ry rz
    limits (-20.0 45.0)
           (-30.0 30.0)
           (-30.0 30.0)
  end
  begin
     id 12 
     name upperback
     direction -0.0130978 0.999914 -0.000352645   
     length 1.8116   
     axis 0 -0 0   XYZ
    dof rx ry rz
    limits (-20.0 45.0)
           (-30.0 30.0)
           (-30.0 30.0)
  end
  begin
     id 13 
     name thorax
     direction -0.0300198 0.999453 0.0138573   
     length 1.81778   
     axis 0 -0 0   XYZ
    dof rx ry rz
    limits (-20.0 45.0)
           (-30.0 30.0)
           (-30.0 30.0)
  end
  begin
     id 14 
     name lowerneck
     direction -0.0401726 0.999191 -0.00173647   
     length 2.10594   
     axis 0 -0 0   XYZ
    dof rx ry rz
    limits (-20.0 45.0)
           (-30.0 30.0)
           (-30.0 30.0)
  end
  begin
     id 15 
     name upperneck
     direction 0.0119835 0.998501 0.0534085   
     length 2.07325   
     axis 0 -0 0   XYZ
    dof rx ry rz
    limits (-20.0 45.0)
           (-30.0 30.0)
           (-30.0 30.0)
  end
  begin
     id 16
     name head
     direction 0.00628309 0.999826 0.0175921  
     length 2.15096  
     axis 0 -0 0   XYZ
    dof rx ry rz
    limits (-20.0 45.0)
           (-30.0 30.0)
           (-30.0 30.0)
  end
  begin
     id 17 
     name lclavicle
     direction 0.895501 0.429681 -0.115981  
     length 4.18092  
     axis 0 -0 0   XYZ
    dof ry rz
    limits (-20.0 10.0)
           (0.0 20.0)
  end
  begin
     id 18 
     name lhumerus
     direction 1 -4.48961e-011 -3.38433e-028   
     length 5.77237   
     axis 180 -30 -90   XYZ
    dof rx ry rz
    limits (-60.0 90.0)
           (-90.0 90.0)
           (-90.0 90.0)
  end
  begin
     id 19
     name lradius
     direction 1 -4.4901e-011 1.11983e-026   
     length 2.91878   
     axis 180 -30 -90   XYZ
    dof rx
    limits (-10.0 170.0)
  end
  begin
     id 20
     name lwrist
     direction 1 -4.48934e-011 1.88176e-026   
     length 1.45939   
     axis -1.23311e-014 90 90   XYZ
    dof ry
    limits (-180.0 0.0)
 end
  begin
     id 21 
     name lhand
     direction 1 -4.4895e-011 3.76352e-026   
     length 1.06566   
     axis -2.40147e-014 90 90   XYZ
    dof rx rz
    limits (-90.0 90.0)
           (-45.0 45.0)
  end
  begin
     id 22 
     name lfingers
     direction 1 -4.49005e-011 7.52705e-026   
     length 0.859162   
     axis -4.80295e-014 90 90   XYZ
    dof rx
    limits (0.0 90.0)
  end
  begin
     id 23
     name lthumb
     direction 0.707107 -6.34885e-011 0.707107   
     length 1.23359   
     axis -90 45 -9.86935e-015   XYZ
    dof rx rz
    limits (-45.0 45.0)
           (-45.0 45.0)
  end
  begin
     id 24 
     name rclavicle
     direction -0.91006 0.40451 -0.0903492   
     length 4.23293  
     axis 0 -0 0   XYZ 
    dof ry rz
    limits (-10.0 20.0)
           (-20.0 0.0)
  end
  begin
     id 25 
     name rhumerus
     direction -1 -4.4897e-011 1.7415e-027  
     length 5.49854   
     axis 180 30 90   XYZ
    dof rx ry rz
    limits (-90.0 60.0)
           (-90.0 90.0)
           (-90.0 90.0)
  end
  begin
     id 26 
     name rradius
     direction -1 -4.48963e-011 1.21259e-026   
     length 3.1186   
     axis 180 30 90   XYZ
    dof rx
    limits (-10.0 170.0)
  end
  begin
     id 27 
     name rwrist
     direction -1 -4.48967e-011 1.88176e-026   
     length 1.5593   
     axis -1.23311e-014 -90 -90   XYZ
    dof ry
    limits (-180.0 0.0)
  end
  begin
     id 28
     name rhand
     direction -1 -4.4895e-011 3.76352e-026   
     length 0.71207   
     axis -2.40147e-014 -90 -90   XYZ
    dof rx rz
    limits (-90.0 90.0)
           (-45.0 45.0)
  end
  begin
     id 29
     name rfingers
     direction -1 -4.49005e-011 7.52705e-026   
     length 0.574089   
     axis -4.80295e-014 -90 -90   XYZ
    dof rx
    limits (0.0 90.0)
  end
  begin
     id 30
     name rthumb
     direction -0.707107 -6.34982e-011 0.707107   
     length 0.824281   
     axis -90 -45 9.86935e-015   XYZ
    dof rx rz
    limits (-45.0 45.0)
           (-45.0 45.0)
  end
:hierarchy
  begin
    root lhipjoint rhipjoint lowerback
    lhipjoint lfemur
    lfemur ltibia
    ltibia lfoot
    lfoot ltoes
    rhipjoint rfemur
    rfemur rtibia
    rtibia rfoot
    rfoot rtoes
    lowerback upperback
    upperback thorax
    thorax lowerneck lclavicle rclavicle
    lowerneck upperneck
    upperneck head
    lclavicle lhumerus
    lhumerus lradius
    lradius lwrist
    lwrist lhand lthumb
    lhand lfingers
    rclavicle rhumerus
    rhumerus rradius
    rradius rwrist
    rwrist rhand rthumb
    rhand rfingers
  end

#!OML:ASF C:\ViconDB\ViconDB\414\Spring2016\042216\male.ASF
:FULLY-SPECIFIED
:DEGREES
254
root 8.92004 17.3932 7.6541 -143.594 61.0922 -159.505
lowerback 6.77674 -1.60144 5.87639
upperback -1.06798 -1.55026 1.19681
thorax -5.04933 -0.905644 -1.87949
lowerneck 1.17185 6.66121 -3.65602
upperneck -22.2463 10.3686 1.89355
head -7.30178 5.54367 0.470573
rclavicle 2.14687e-014 -4.45278e-014
rhumerus 30.8107 -6.49902 -58.4907
rradius 103.962
rwrist -0.233639
rhand 12.8802 -27.6459
rfingers 7.12502
rthumb 37.8527 -53.485
lclavicle 2.14687e-014 -4.45278e-014
lhumerus 19.7147 9.56623 53.796
lradius 103.803
lwrist 14.5916
lhand -4.48263 8.41219
lfingers 7.12502
lthumb 21.2904 37.2628
rfemur -12.0161 -13.3821 25.8257
rtibia 27.3403
rfoot -4.83227 -0.462889
rtoes -32.9167
lfemur -20.8063 -1.41488 -11.0121
ltibia 44.2898
lfoot -21.2135 17.0212
ltoes -36.0981
255
root 9.1574 17.6447 7.55602 -144.259 61.1026 -159.486
lowerback 4.89644 -1.65252 5.57988
upperback -1.31755 -1.76973 1.23339
thorax -4.25016 -0.9942 -1.69762
lowerneck 1.6452 6.95693 -3.66929
upperneck -20.2245 10.6061 2.55239
head -6.76844 5.53703 0.695108
rclavicle -2.66371e-014 2.78299e-014
rhumerus 29.352 -4.26922 -61.4606
rradius 102.831
rwrist -1.06562
rhand 11.503 -27.8629
rfingers 7.12502
rthumb 36.5505 -54.0422
lclavicle -2.66371e-014 2.78299e-014
lhumerus 17.7215 8.79173 55.8613
lradius 101.756
lwrist 16.0745
lhand -5.38741 8.93398
lfingers 7.12502
lthumb 20.4212 37.8802
rfemur -9.36372 -14.3539 25.2351
rtibia 24.0248
rfoot 1.57599 0.322971
rtoes -32.009
lfemur -17.8234 -1.74587 -10.6816
ltibia 40.1641
lfoot -15.9396 15.0059
ltoes -37.0671
256
root 9.38625 17.925 7.43931 -144.43 61.3478 -159.186
lowerback 2.9533 -1.60587 5.80093
upperback -1.63463 -1.82838 1.07143
thorax -3.49847 -1.01979 -2.03153
lowerneck 1.66393 7.16093 -3.97463
upperneck -17.7294 10.7545 3.63843
head -6.05523 5.50241 1.12793
rclavicle 4.79071e-014 -1.03368e-014
rhumerus 27.45 -2.42142 -65.0092
rradius 101.707
rwrist -1.14216
rhand 11.1465 -27.9559
rfingers 7.12502
rthumb 36.2129 -54.2198
lclavicle 4.79071e-014 -1.03368e-014
lhumerus 15.5378 8.06611 57.9471
lradius 99.6427
lwrist 17.2299
lhand -6.38268 9.4956
lfingers 7.12502
lthumb 19.4645 38.5414
rfemur -7.67008 -15.4987 24.6358
rtibia 21.8977
rfoot 8.40554 1.03934
rtoes -25.3637
lfemur -15.2124 -2.83339 -10.4473
ltibia 36.0053
lfoot -9.65464 13.8313
ltoes -37.464
257
root 9.62395 18.2717 7.29411 -143.939 61.8202 -158.4
lowerback 0.874745 -1.42586 6.27221
upperback -1.85463 -1.71561 0.971451
thorax -2.56392 -0.952447 -2.45513
lowerneck 1.53597 7.30547 -3.93963
upperneck -15.5152 10.7589 3.98934
head -5.35637 5.44964 1.28452
rclavicle 1.15295e-014 -1.59028e-015
rhumerus 25.5031 -0.729775 -68.3813
rradius 100.584
rwrist -1.13877
rhand 11.0102 -28.0585
rfingers 7.12502
rthumb 36.0838 -54.3544
lclavicle 1.15295e-014 -1.59028e-015
lhumerus 13.36 7.91949 60.3674
lradius 97.323
lwrist 18.6058
lhand -6.80246 9.59642
lfingers 7.12502
lthumb 19.0608 38.6824
rfemur -6.59609 -13.9097 24.2925
rtibia 21.1865
rfoot 13.2875 -1.32096
rtoes -15.0167
lfemur -12.8121 -5.26228 -10.297
ltibia 32.0219
lfoot -2.32238 14.912
ltoes -36.3311
258
root 9.85043 18.6739 7.15532 -142.681 62.2119 -157.137
lowerback -1.12327 -1.16094 6.8738
upperback -2.03588 -1.49711 0.968231
thorax -1.62658 -0.824937 -2.8445
lowerneck 1.39949 7.30048 -4.26499
upperneck -13.9696 10.6479 4.51808
head -4.89566 5.36673 1.54092
rclavicle 3.3197e-014 -8.74653e-015
rhumerus 23.6621 0.634525 -71.4769
rradius 99.4998
rwrist -1.23867
rhand 10.5766 -28.5029
rfingers 7.12502
rthumb 35.673 -54.8991
lclavicle 3.3197e-014 -8.74653e-015
lhumerus 11.5331 8.10134 62.8132
lradius 94.7867
lwrist 19.4482
lhand -6.9244 10.167
lfingers 7.12502
lthumb 18.9435 39.2646
rfemur -6.14883 -7.69008 24.8542
rtibia 22.0312
rfoot 13.2017 -8.22719
rtoes -8.1865
lfemur -11.0536 -10.0081 -9.96621
ltibia 28.5536
lfoot 5.29583 18.7719
ltoes -32.6738
259
root 10.0472 19.0828 7.02767 -141.253 62.6611 -155.873
lowerback -2.69627 -0.762912 7.41152
upperback -2.20961 -1.08637 0.984238
thorax -0.895675 -0.600959 -3.15564
lowerneck 1.47086 7.35687 -4.39271
upperneck -13.2607 10.6329 4.50609
head -4.6953 5.35406 1.56975
rclavicle 2.94201e-014 -1.11319e-014
rhumerus 21.8127 1.53012 -74.1622
rradius 98.2547
rwrist -0.482274
rhand 10.5004 -28.2043
rfingers 7.12502
rthumb 35.6008 -54.6179
lclavicle 2.94201e-014 -1.11319e-014
lhumerus 9.97799 8.39357 65.4615
lradius 92.1094
lwrist 19.7809
lhand -6.83954 10.6296
lfingers 7.12502
lthumb 19.0251 39.7192
rfemur -6.52043 -1.57146 25.6363
rtibia 24.6189
rfoot 9.90227 -15.1845
rtoes -13.7911
lfemur -9.98591 -11.2365 -9.70652
ltibia 26.0086
lfoot 11.7794 18.5158
ltoes -27.9463
260
root 10.2177 19.5101 6.91387 -140.404 63.0025 -155.338
lowerback -3.79635 -0.587153 7.5126
upperback -2.36336 -0.933941 1.10519
thorax -0.42288 -0.506644 -3.0991
lowerneck 2.02621 7.4383 -4.91093
upperneck -13.6837 10.6926 4.39702
head -4.94355 5.39689 1.58043
rclavicle 3.16068e-014 -2.38542e-015
rhumerus 20.1407 2.67562 -76.6436
rradius 96.7811
rwrist 0.567421
rhand 10.4378 -27.2095
rfingers 7.12502
rthumb 35.5414 -53.6374
lclavicle 3.16068e-014 -2.38542e-015
lhumerus 8.4051 9.18184 68.0212
lradius 89.3391
lwrist 19.5275
lhand -7.07668 11.266
lfingers 7.12502
lthumb 18.7971 40.3778
rfemur -7.85782 -0.0136641 26.0234
rtibia 28.653
rfoot 10.522 -17.6291
rtoes -10.7276
lfemur -9.66977 -9.56541 -9.80149
ltibia 25.0679
lfoot 15.8735 14.131
ltoes -15.8735
261
root 10.3551 19.9216 6.81481 -140.656 63.4885 -155.937
lowerback -4.39166 -0.432885 7.19762
upperback -2.31644 -0.775953 0.983263
thorax -0.0196233 -0.411493 -3.05223
lowerneck 2.68421 7.49657 -5.00096
upperneck -15.0092 10.7438 3.72965
head -5.4371 5.45871 1.33195
rclavicle 1.5704e-014 -4.92986e-014
rhumerus 18.6726 3.29714 -79.0393
rradius 95.0968
rwrist 2.15097
rhand 10.9327 -25.9077
rfingers 7.12502
rthumb 36.0105 -52.2217
lclavicle 1.5704e-014 -4.92986e-014
lhumerus 7.32191 9.80487 70.3138
lradius 86.4299
lwrist 18.7618
lhand -7.78312 11.7882
lfingers 7.12502
lthumb 18.1175 40.9644
rfemur -10.032 -2.43336 25.5858
rtibia 33.9798
rfoot 12.5607 -15.1458
rtoes -5.35419
lfemur -10.0481 -7.51116 -10.5881
ltibia 26.1633
lfoot 17.9539 8.19109
ltoes -6.11694
262
root 10.4656 20.3266 6.71438 -140.787 63.6209 -156.357
lowerback -4.48498 -0.415576 7.2615
upperback -2.21174 -0.771339 0.975776
thorax 0.140394 -0.402894 -3.09739
lowerneck 2.96483 7.52576 -5.49203
upperneck -16.3003 10.7845 3.34445
head -5.89792 5.53921 1.24617
rclavicle 6.12257e-014 1.82882e-014
rhumerus 17.5401 4.13896 -81.0514
rradius 92.9492
rwrist 3.39441
rhand 10.8083 -24.9514
rfingers 7.12502
rthumb 35.8926 -51.2942
lclavicle 6.12257e-014 1.82882e-014
lhumerus 6.2293 10.175 72.1334
lradius 83.6141
lwrist 18.1391
lhand -9.03799 12.8611
lfingers 7.12502
lthumb 16.9099 42.145
rfemur -12.7065 -5.28293 25.3567
rtibia 40.2474
rfoot 12.2974 -10.997
rtoes -6.99215
lfemur -11.1147 -5.81447 -11.0741
ltibia 29.1372
lfoot 17.3802 5.24837
ltoes -10.4239
